<svg width="186" height="184" viewBox="0 0 186 184" fill="none" xmlns="http://www.w3.org/2000/svg">
<rect x="3" y="3.12549" width="180" height="177" rx="88.5" fill="#004E9B"/>
<rect x="3" y="3.12549" width="180" height="177" rx="88.5" stroke="#0071B8" stroke-width="6"/>
<mask id="mask0_544_1510" style="mask-type:alpha" maskUnits="userSpaceOnUse" x="43" y="44" width="100" height="95">
<rect x="43" y="44.9946" width="100" height="93.2619" fill="#D9D9D9"/>
</mask>
<g mask="url(#mask0_544_1510)">
<path d="M120.5 79.9678C121.917 79.9678 123.104 79.521 124.062 78.6272C125.021 77.7334 125.5 76.6259 125.5 75.3047C125.5 73.9835 125.021 72.876 124.062 71.9823C123.104 71.0885 121.917 70.6416 120.5 70.6416C119.083 70.6416 117.896 71.0885 116.938 71.9823C115.979 72.876 115.5 73.9835 115.5 75.3047C115.5 76.6259 115.979 77.7334 116.938 78.6272C117.896 79.521 119.083 79.9678 120.5 79.9678ZM120.5 86.9625C116.958 86.9625 113.99 85.8453 111.594 83.6109C109.198 81.3765 108 78.6078 108 75.3047C108 72.0665 109.198 69.314 111.594 67.0472C113.99 64.7804 116.958 63.647 120.5 63.647C123.972 63.647 126.924 64.7804 129.354 67.0472C131.785 69.314 133 72.0665 133 75.3047C133 78.6078 131.785 81.3765 129.354 83.6109C126.924 85.8453 123.972 86.9625 120.5 86.9625ZM93 72.9732C94.7361 72.9732 96.2118 72.4227 97.4271 71.3217C98.6424 70.2207 99.25 68.8282 99.25 67.1443C99.25 65.5252 98.6424 64.1489 97.4271 63.0155C96.2118 61.8821 94.7361 61.3154 93 61.3154C91.1944 61.3154 89.7014 61.8821 88.5208 63.0155C87.3403 64.1489 86.75 65.5252 86.75 67.1443C86.75 68.8282 87.3403 70.2207 88.5208 71.3217C89.7014 72.4227 91.1944 72.9732 93 72.9732ZM92.9969 79.9678C89.1795 79.9678 85.934 78.7211 83.2604 76.2276C80.5868 73.7342 79.25 70.7074 79.25 67.1472C79.25 63.648 80.5868 60.6354 83.2604 58.1096C85.934 55.5837 89.1795 54.3208 92.9969 54.3208C96.749 54.3208 99.9792 55.5837 102.688 58.1096C105.396 60.6354 106.75 63.648 106.75 67.1472C106.75 70.7074 105.396 73.7342 102.688 76.2276C99.9792 78.7211 96.749 79.9678 92.9969 79.9678ZM75.5 99.786C75.5 101.729 76.8715 104.255 79.6146 107.364C82.3576 110.472 86.8194 114.552 93 119.604C99.9444 113.711 104.597 109.436 106.958 106.781C109.319 104.125 110.5 101.794 110.5 99.786C110.5 98.1021 109.91 96.7096 108.729 95.6086C107.549 94.5076 106.056 93.9571 104.25 93.9571C103.208 93.9571 102.184 94.1838 101.177 94.6372C100.17 95.0905 99.3194 95.6734 98.625 96.3858L94.4583 100.952H91.4375L87.2708 96.3858C86.5764 95.6734 85.7257 95.0905 84.7188 94.6372C83.7118 94.1838 82.7069 93.9571 81.7042 93.9571C79.9292 93.9571 78.4514 94.5076 77.2708 95.6086C76.0903 96.7096 75.5 98.1021 75.5 99.786ZM68 99.786C68 96.2887 69.3368 93.2771 72.0104 90.7512C74.684 88.2254 77.9306 86.9625 81.75 86.9625C83.8785 86.9625 85.9208 87.3996 87.8771 88.274C89.834 89.1483 91.5417 90.3303 93 91.8199C94.4069 90.3251 96.0955 89.1418 98.0656 88.2701C100.036 87.3983 102.097 86.9625 104.25 86.9625C108 86.9625 111.229 88.2254 113.938 90.7512C116.646 93.2771 118 96.2887 118 99.786C118 103.089 116.767 106.376 114.302 109.646C111.837 112.917 107.549 117.014 101.438 121.936L93 128.736L84.5625 121.936C78.3819 116.949 74.0764 112.82 71.6458 109.549C69.2153 106.279 68 103.024 68 99.786ZM65.5 79.9678C66.9167 79.9678 68.1042 79.521 69.0625 78.6272C70.0208 77.7334 70.5 76.6259 70.5 75.3047C70.5 73.9835 70.0208 72.876 69.0625 71.9823C68.1042 71.0885 66.9167 70.6416 65.5 70.6416C64.0833 70.6416 62.8958 71.0885 61.9375 71.9823C60.9792 72.876 60.5 73.9835 60.5 75.3047C60.5 76.6259 60.9792 77.7334 61.9375 78.6272C62.8958 79.521 64.0833 79.9678 65.5 79.9678ZM93.3125 128.93V121.936H125.5V98.6202H114.667V91.6256H125.493C127.511 91.6256 129.267 92.3218 130.76 93.7143C132.253 95.1067 133 96.7271 133 98.5755V125.462C133 126.414 132.641 127.23 131.922 127.91C131.203 128.59 130.312 128.93 129.25 128.93H93.3125ZM60.5 121.936H93.3125V128.93H56.75C55.6875 128.93 54.7969 128.595 54.0781 127.925C53.3594 127.255 53 126.424 53 125.433V98.5726C53 96.7262 53.7292 95.1067 55.1875 93.7143C56.6458 92.3218 58.408 91.6256 60.474 91.6256H71.2292V98.6202H60.5V121.936ZM65.5 86.9625C61.9583 86.9625 58.9896 85.8453 56.5938 83.6109C54.1979 81.3765 53 78.6078 53 75.3047C53 72.0665 54.1979 69.314 56.5938 67.0472C58.9896 64.7804 61.9583 63.647 65.5 63.647C68.9722 63.647 71.9236 64.7804 74.3542 67.0472C76.7847 69.314 78 72.0665 78 75.3047C78 78.6078 76.7847 81.3765 74.3542 83.6109C71.9236 85.8453 68.9722 86.9625 65.5 86.9625Z" fill="white"/>
</g>
</svg>
