<svg width="186" height="184" viewBox="0 0 186 184" fill="none" xmlns="http://www.w3.org/2000/svg">
<rect x="3" y="3.12549" width="180" height="177" rx="88.5" fill="#004E9B"/>
<rect x="3" y="3.12549" width="180" height="177" rx="88.5" stroke="#0071B8" stroke-width="6"/>
<mask id="mask0_544_1521" style="mask-type:alpha" maskUnits="userSpaceOnUse" x="43" y="44" width="100" height="95">
<rect x="43" y="44.9946" width="100" height="93.2619" fill="#D9D9D9"/>
</mask>
<g mask="url(#mask0_544_1521)">
<path d="M65.5 117.273H70.8125L109.875 80.8422L104.562 75.8876L65.5 112.318V117.273ZM61.7687 124.267C60.7146 124.267 59.8229 123.934 59.0938 123.267C58.3646 122.6 58 121.774 58 120.787V112.35C58 111.422 58.1736 110.537 58.5208 109.695C58.8681 108.853 59.4236 108.076 60.1875 107.364L109.875 61.024C110.639 60.3116 111.467 59.7935 112.358 59.4696C113.249 59.1458 114.187 58.9839 115.171 58.9839C116.154 58.9839 117.097 59.1458 118 59.4696C118.903 59.7935 119.736 60.3116 120.5 61.024L125.812 65.9785C126.576 66.6909 127.132 67.4681 127.479 68.3101C127.826 69.152 128 70.0115 128 70.8884C128 71.8242 127.826 72.7161 127.477 73.5638C127.128 74.4116 126.574 75.1862 125.812 75.8876L76.125 122.227C75.3611 122.94 74.5295 123.458 73.6302 123.782C72.7309 124.105 71.7851 124.267 70.7927 124.267H61.7687ZM107.172 78.4086L104.562 75.8876L109.875 80.8422L107.172 78.4086Z" fill="white"/>
</g>
</svg>
