<svg width="186" height="184" viewBox="0 0 186 184" fill="none" xmlns="http://www.w3.org/2000/svg">
<rect x="3" y="3.12549" width="180" height="177" rx="88.5" fill="#004E9B"/>
<rect x="3" y="3.12549" width="180" height="177" rx="88.5" stroke="#0071B8" stroke-width="6"/>
<mask id="mask0_544_1499" style="mask-type:alpha" maskUnits="userSpaceOnUse" x="43" y="44" width="100" height="95">
<rect x="43" y="44.9946" width="100" height="93.2619" fill="#D9D9D9"/>
</mask>
<g mask="url(#mask0_544_1499)">
<path d="M63 109.112V85.7969C63 84.806 63.3573 83.9754 64.0719 83.305C64.7865 82.6347 65.6719 82.2996 66.7281 82.2996C67.7844 82.2996 68.6771 82.6347 69.4062 83.305C70.1354 83.9754 70.5 84.806 70.5 85.7969V109.112C70.5 110.103 70.1427 110.934 69.4281 111.604C68.7135 112.275 67.8281 112.61 66.7719 112.61C65.7156 112.61 64.8229 112.275 64.0938 111.604C63.3646 110.934 63 110.103 63 109.112ZM89.25 109.112V85.7969C89.25 84.806 89.6073 83.9754 90.3219 83.305C91.0365 82.6347 91.9219 82.2996 92.9781 82.2996C94.0344 82.2996 94.9271 82.6347 95.6562 83.305C96.3854 83.9754 96.75 84.806 96.75 85.7969V109.112C96.75 110.103 96.3927 110.934 95.6781 111.604C94.9635 112.275 94.0781 112.61 93.0219 112.61C91.9656 112.61 91.0729 112.275 90.3438 111.604C89.6146 110.934 89.25 110.103 89.25 109.112ZM56.75 124.267C55.6875 124.267 54.7969 123.934 54.0781 123.268C53.3594 122.601 53 121.776 53 120.791C53 119.805 53.3594 118.973 54.0781 118.293C54.7969 117.613 55.6875 117.273 56.75 117.273H129.25C130.312 117.273 131.203 117.606 131.922 118.272C132.641 118.939 133 119.765 133 120.75C133 121.735 132.641 122.567 131.922 123.247C131.203 123.927 130.312 124.267 129.25 124.267H56.75ZM115.5 109.112V85.7969C115.5 84.806 115.857 83.9754 116.572 83.305C117.286 82.6347 118.172 82.2996 119.228 82.2996C120.284 82.2996 121.177 82.6347 121.906 83.305C122.635 83.9754 123 84.806 123 85.7969V109.112C123 110.103 122.643 110.934 121.928 111.604C121.214 112.275 120.328 112.61 119.272 112.61C118.216 112.61 117.323 112.275 116.594 111.604C115.865 110.934 115.5 110.103 115.5 109.112ZM128 77.6365H57.4792C56.2347 77.6365 55.1771 77.232 54.3063 76.4231C53.4354 75.6142 53 74.6317 53 73.4756V70.9333C53 70.1561 53.2257 69.4113 53.6771 68.6989C54.1285 67.9864 54.7361 67.4683 55.5 67.1445L89.6667 51.2122C90.716 50.6941 91.8271 50.4351 93 50.4351C94.1729 50.4351 95.284 50.6941 96.3333 51.2122L130.292 67.0473C131.125 67.4359 131.785 68.0026 132.271 68.7474C132.757 69.4922 133 70.3031 133 71.18V72.9734C133 74.2946 132.521 75.4021 131.562 76.2958C130.604 77.1896 129.417 77.6365 128 77.6365ZM64.7708 70.6418H121.229L93 57.5269L64.7708 70.6418Z" fill="white"/>
</g>
</svg>
