<svg width="186" height="184" viewBox="0 0 186 184" fill="none" xmlns="http://www.w3.org/2000/svg">
<rect x="3" y="3.12549" width="180" height="177" rx="88.5" fill="#004E9B"/>
<rect x="3" y="3.12549" width="180" height="177" rx="88.5" stroke="#0071B8" stroke-width="6"/>
<mask id="mask0_544_1482" style="mask-type:alpha" maskUnits="userSpaceOnUse" x="43" y="44" width="100" height="95">
<rect x="43" y="44.9946" width="100" height="93.2619" fill="#D9D9D9"/>
</mask>
<g mask="url(#mask0_544_1482)">
<path d="M65.5001 113.193C64.3195 112.674 63.382 111.832 62.6876 110.667C61.9931 109.501 61.6459 108.27 61.6459 106.975V88.1284L50.8126 83.0767C50.1181 82.7529 49.5973 82.3196 49.2501 81.7769C48.9029 81.2341 48.7292 80.6312 48.7292 79.968C48.7292 79.3048 48.9029 78.7018 49.2501 78.1591C49.5973 77.6164 50.1181 77.1831 50.8126 76.8593L85.8126 60.5384C86.339 60.2794 86.8799 60.0851 87.4355 59.9555C87.9911 59.826 88.5612 59.7612 89.1459 59.7612C89.7306 59.7612 90.3008 59.826 90.8563 59.9555C91.4119 60.0851 91.9529 60.2794 92.4792 60.5384L132.167 78.9965C132.792 79.3203 133.278 79.7488 133.625 80.2818C133.972 80.8154 134.146 81.3909 134.146 82.0081V106.781C134.146 107.688 133.764 108.497 133 109.209C132.236 109.922 131.351 110.278 130.344 110.278C129.337 110.278 128.469 109.922 127.74 109.209C127.01 108.497 126.646 107.688 126.646 106.781V83.4653L116.646 88.1284V106.975C116.646 108.27 116.316 109.485 115.656 110.618C114.997 111.752 114.042 112.61 112.792 113.193L92.4792 122.713C91.9237 122.972 91.3754 123.15 90.8345 123.247C90.2928 123.345 89.7372 123.393 89.1678 123.393C88.5977 123.393 88.0348 123.345 87.4792 123.247C86.9237 123.15 86.3681 122.972 85.8126 122.713L65.5001 113.193ZM89.1459 93.0829L117.375 79.968L89.1459 66.853L60.9167 79.968L89.1459 93.0829ZM89.1459 116.301L109.146 107.072V91.7229L92.7917 99.3004C92.1667 99.6242 91.5532 99.8509 90.9511 99.9804C90.3497 100.11 89.748 100.175 89.1459 100.175C88.4515 100.175 87.8091 100.11 87.2188 99.9804C86.6286 99.8509 86.0556 99.6242 85.5001 99.3004L69.1459 91.7229V107.072L89.1459 116.301Z" fill="white"/>
</g>
</svg>
