<svg width="186" height="184" viewBox="0 0 186 184" fill="none" xmlns="http://www.w3.org/2000/svg">
<rect x="3" y="3.12549" width="180" height="177" rx="88.5" fill="#004E9B"/>
<rect x="3" y="3.12549" width="180" height="177" rx="88.5" stroke="#0071B8" stroke-width="6"/>
<mask id="mask0_544_1481" style="mask-type:alpha" maskUnits="userSpaceOnUse" x="43" y="42" width="100" height="99">
<rect x="43" y="42.7603" width="100" height="97.7301" fill="#D9D9D9"/>
</mask>
<g mask="url(#mask0_544_1481)">
<path d="M103 91.6252L118 83.1756L103 74.8278L88 83.1756L103 91.6252ZM103 101.398L113.729 95.3919V89.4873L103 95.3919L92.2708 89.4873V95.3919L103 101.398ZM125.5 120.944H100.5C100.5 119.723 100.448 118.501 100.344 117.279C100.24 116.058 100.083 114.836 99.875 113.614H125.5V69.6359H60.5V75.1332C59.25 74.9296 58 74.7769 56.75 74.6751C55.5 74.5733 54.25 74.5224 53 74.5224V69.6359C53 67.6202 53.7344 65.8947 55.2031 64.4593C56.6719 63.0239 58.4375 62.3062 60.5 62.3062H125.5C127.562 62.3062 129.328 63.0242 130.797 64.4603C132.266 65.8964 133 67.6229 133 69.64V113.643C133 115.66 132.266 117.381 130.797 118.806C129.328 120.232 127.562 120.944 125.5 120.944ZM53 120.944V111.171C55.7778 111.171 58.1389 112.121 60.0833 114.022C62.0278 115.922 63 118.229 63 120.944H53ZM70.5 120.944C70.5 116.193 68.7938 112.155 65.3813 108.83C61.9688 105.504 57.8417 103.841 53 103.841V96.5117C59.9444 96.5117 65.8472 98.8823 70.7083 103.624C75.5694 108.364 78 114.138 78 120.944H70.5ZM85.5 120.944C85.5 116.546 84.6493 112.426 82.9479 108.585C81.2465 104.744 78.9201 101.381 75.9688 98.4968C73.0174 95.6124 69.5764 93.3389 65.6458 91.6761C61.716 90.0133 57.5007 89.1819 53 89.1819V81.8522C58.5556 81.8522 63.7528 82.8719 68.5917 84.9113C73.4312 86.9508 77.6656 89.7442 81.2948 93.2917C84.9247 96.8385 87.783 100.977 89.8698 105.706C91.9566 110.436 93 115.515 93 120.944H85.5Z" fill="white"/>
</g>
</svg>
