<svg width="72" height="72" viewBox="0 0 72 72" fill="none" xmlns="http://www.w3.org/2000/svg">
<mask id="mask0_356_604" style="mask-type:alpha" maskUnits="userSpaceOnUse" x="0" y="0" width="72" height="72">
<rect width="72" height="72" fill="#D9D9D9"/>
</mask>
<g mask="url(#mask0_356_604)">
<path d="M63.75 38.25H57C56.3625 38.25 55.8283 38.033 55.3972 37.599C54.9657 37.1655 54.75 36.628 54.75 35.9865C54.75 35.3455 54.9657 34.8125 55.3972 34.3875C55.8283 33.9625 56.3625 33.75 57 33.75H63.75C64.3875 33.75 64.922 33.967 65.3535 34.401C65.7845 34.8345 66 35.372 66 36.0135C66 36.6545 65.7845 37.1875 65.3535 37.6125C64.922 38.0375 64.3875 38.25 63.75 38.25ZM50.775 51.45C51.175 50.95 51.6708 50.65 52.2623 50.55C52.8533 50.45 53.4075 50.6 53.925 51L59.4 55.05C59.9 55.45 60.2 55.9457 60.3 56.5372C60.4 57.1282 60.25 57.6825 59.85 58.2C59.45 58.7 58.9543 59 58.3628 59.1C57.7718 59.2 57.2175 59.05 56.7 58.65L51.225 54.6C50.725 54.2 50.425 53.7042 50.325 53.1127C50.225 52.5217 50.375 51.9675 50.775 51.45ZM59.4 16.95L54.15 20.925C53.6325 21.325 53.0783 21.475 52.4873 21.375C51.8958 21.275 51.4 20.975 51 20.475C50.6 19.975 50.45 19.425 50.55 18.825C50.65 18.225 50.95 17.725 51.45 17.325L56.7 13.35C57.2175 12.95 57.7718 12.8 58.3628 12.9C58.9543 13 59.45 13.3 59.85 13.8C60.25 14.3 60.4 14.85 60.3 15.45C60.2 16.05 59.9 16.55 59.4 16.95ZM15.75 45H10.5C9.2625 45 8.20325 44.5592 7.32225 43.6777C6.44075 42.7967 6 41.7375 6 40.5V31.5C6 30.2625 6.44075 29.203 7.32225 28.3215C8.20325 27.4405 9.2625 27 10.5 27H24L35.625 20.025C36.375 19.575 37.125 19.5735 37.875 20.0205C38.625 20.467 39 21.1185 39 21.975V50.025C39 50.8815 38.625 51.533 37.875 51.9795C37.125 52.4265 36.375 52.425 35.625 51.975L24 45H20.25V54.75C20.25 55.3875 20.033 55.9217 19.599 56.3527C19.1655 56.7842 18.628 57 17.9865 57C17.3455 57 16.8125 56.7842 16.3875 56.3527C15.9625 55.9217 15.75 55.3875 15.75 54.75V45ZM34.5 46.05V25.95L25.2 31.5H10.5V40.5H25.2L34.5 46.05ZM42 46.05V25.95C43.35 27.15 44.4375 28.6125 45.2625 30.3375C46.0875 32.0625 46.5 33.95 46.5 36C46.5 38.05 46.0875 39.9375 45.2625 41.6625C44.4375 43.3875 43.35 44.85 42 46.05Z" fill="#004E9B"/>
</g>
</svg>
