<svg width="96" height="97" viewBox="0 0 96 97" fill="none" xmlns="http://www.w3.org/2000/svg">
<rect y="0.708496" width="96" height="96" rx="48" fill="#0071B8"/>
<mask id="mask0_271_594" style="mask-type:alpha" maskUnits="userSpaceOnUse" x="24" y="24" width="48" height="49">
<rect x="24" y="24.7085" width="48" height="48" fill="#D9D9D9"/>
</mask>
<g mask="url(#mask0_271_594)">
<path d="M50 47.9085V40.7085C50 40.1418 49.8083 39.6668 49.425 39.2835C49.0417 38.9002 48.5667 38.7085 48 38.7085C47.4333 38.7085 46.9583 38.9002 46.575 39.2835C46.1917 39.6668 46 40.1418 46 40.7085V48.6585C46 48.9252 46.05 49.1835 46.15 49.4335C46.25 49.6835 46.4 49.9085 46.6 50.1085L53.2 56.7085C53.5667 57.0752 54.0333 57.2585 54.6 57.2585C55.1667 57.2585 55.6333 57.0752 56 56.7085C56.3667 56.3418 56.55 55.8752 56.55 55.3085C56.55 54.7418 56.3667 54.2752 56 53.9085L50 47.9085ZM48 68.7085C45.2333 68.7085 42.6333 68.1835 40.2 67.1335C37.7667 66.0835 35.65 64.6585 33.85 62.8585C32.05 61.0585 30.625 58.9418 29.575 56.5085C28.525 54.0752 28 51.4752 28 48.7085C28 45.9418 28.525 43.3418 29.575 40.9085C30.625 38.4752 32.05 36.3585 33.85 34.5585C35.65 32.7585 37.7667 31.3335 40.2 30.2835C42.6333 29.2335 45.2333 28.7085 48 28.7085C50.7667 28.7085 53.3667 29.2335 55.8 30.2835C58.2333 31.3335 60.35 32.7585 62.15 34.5585C63.95 36.3585 65.375 38.4752 66.425 40.9085C67.475 43.3418 68 45.9418 68 48.7085C68 51.4752 67.475 54.0752 66.425 56.5085C65.375 58.9418 63.95 61.0585 62.15 62.8585C60.35 64.6585 58.2333 66.0835 55.8 67.1335C53.3667 68.1835 50.7667 68.7085 48 68.7085ZM48 64.7085C52.4333 64.7085 56.2083 63.1502 59.325 60.0335C62.4417 56.9168 64 53.1418 64 48.7085C64 44.2752 62.4417 40.5002 59.325 37.3835C56.2083 34.2668 52.4333 32.7085 48 32.7085C43.5667 32.7085 39.7917 34.2668 36.675 37.3835C33.5583 40.5002 32 44.2752 32 48.7085C32 53.1418 33.5583 56.9168 36.675 60.0335C39.7917 63.1502 43.5667 64.7085 48 64.7085Z" fill="white"/>
</g>
</svg>
