<svg width="41" height="40" viewBox="0 0 41 40" fill="none" xmlns="http://www.w3.org/2000/svg">
<path d="M16.5 32L13.95 38.15C13.75 38.65 13.3917 39.0083 12.875 39.225C12.3583 39.4417 11.85 39.45 11.35 39.25C10.85 39.05 10.4917 38.6917 10.275 38.175C10.0583 37.6583 10.05 37.15 10.25 36.65L12.4 31.45C8.86667 30.5167 6 28.6167 3.8 25.75C1.6 22.8833 0.5 19.6333 0.5 16V8C0.5 5.8 1.28333 3.91667 2.85 2.35C4.41667 0.783333 6.3 0 8.5 0C9.23333 0 9.93333 0.125 10.6 0.375C11.2667 0.625 11.9333 0.883333 12.6 1.15L22.15 5.05C22.5833 5.21667 22.7917 5.525 22.775 5.975C22.7583 6.425 22.5333 6.73333 22.1 6.9L16.5 9V12L37.8 25.55C38.0333 25.7167 38.2167 25.9083 38.35 26.125C38.4833 26.3417 38.5833 26.5833 38.65 26.85L40.05 33.85C40.15 34.4167 40.025 34.9167 39.675 35.35C39.325 35.7833 38.8667 36 38.3 36H37.6C37.2333 36 36.9167 35.9083 36.65 35.725C36.3833 35.5417 36.1667 35.3 36 35L34.5 32H24.5V38C24.5 38.5667 24.3083 39.0417 23.925 39.425C23.5417 39.8083 23.0667 40 22.5 40C21.9333 40 21.4583 39.8083 21.075 39.425C20.6917 39.0417 20.5 38.5667 20.5 38V32H16.5ZM8.5 10C7.93333 10 7.45833 9.80833 7.075 9.425C6.69167 9.04167 6.5 8.56667 6.5 8C6.5 7.43333 6.69167 6.95833 7.075 6.575C7.45833 6.19167 7.93333 6 8.5 6C9.06667 6 9.54167 6.19167 9.925 6.575C10.3083 6.95833 10.5 7.43333 10.5 8C10.5 8.56667 10.3083 9.04167 9.925 9.425C9.54167 9.80833 9.06667 10 8.5 10ZM16.5 28H34.15L31 26H16.5C15.3 26 14.175 25.7583 13.125 25.275C12.075 24.7917 11.1833 24.1167 10.45 23.25C10.0167 22.7833 9.6 22.1417 9.2 21.325C8.8 20.5083 8.6 19.7667 8.6 19.1C8.6 18.5333 8.79167 18.0583 9.175 17.675C9.55833 17.2917 10.0333 17.1 10.6 17.1C11.1 17.1 11.5333 17.2667 11.9 17.6C12.2667 17.9333 12.5 18.3333 12.6 18.8C12.7667 19.7333 13.2167 20.5 13.95 21.1C14.6833 21.7 15.5333 22 16.5 22H24.75L12.5 14.2V8C12.5 6.9 12.1083 5.95833 11.325 5.175C10.5417 4.39167 9.6 4 8.5 4C7.4 4 6.45833 4.39167 5.675 5.175C4.89167 5.95833 4.5 6.9 4.5 8V16C4.5 19.3333 5.66667 22.1667 8 24.5C10.3333 26.8333 13.1667 28 16.5 28Z" fill="white"/>
</svg>
