<svg width="41" height="40" viewBox="0 0 41 40" fill="none" xmlns="http://www.w3.org/2000/svg">
<path d="M20.5 40C17.7333 40 15.1333 39.475 12.7 38.425C10.2667 37.375 8.15 35.95 6.35 34.15C4.55 32.35 3.125 30.2333 2.075 27.8C1.025 25.3667 0.5 22.7667 0.5 20C0.5 17.2333 1.025 14.6333 2.075 12.2C3.125 9.76667 4.55 7.65 6.35 5.85C8.15 4.05 10.2667 2.625 12.7 1.575C15.1333 0.525 17.7333 0 20.5 0C23.2667 0 25.8667 0.525 28.3 1.575C30.7333 2.625 32.85 4.05 34.65 5.85C36.45 7.65 37.875 9.76667 38.925 12.2C39.975 14.6333 40.5 17.2333 40.5 20C40.5 22.7667 39.975 25.3667 38.925 27.8C37.875 30.2333 36.45 32.35 34.65 34.15C32.85 35.95 30.7333 37.375 28.3 38.425C25.8667 39.475 23.2667 40 20.5 40ZM20.5 36C24.9667 36 28.75 34.45 31.85 31.35C34.95 28.25 36.5 24.4667 36.5 20C36.5 19.7667 36.4917 19.525 36.475 19.275C36.4583 19.025 36.45 18.8167 36.45 18.65C36.2833 19.6167 35.8333 20.4167 35.1 21.05C34.3667 21.6833 33.5 22 32.5 22H28.5C27.4 22 26.4583 21.6083 25.675 20.825C24.8917 20.0417 24.5 19.1 24.5 18V16H16.5V12C16.5 10.9 16.8917 9.95833 17.675 9.175C18.4583 8.39167 19.4 8 20.5 8H22.5C22.5 7.23333 22.7083 6.55833 23.125 5.975C23.5417 5.39167 24.05 4.91667 24.65 4.55C23.9833 4.38333 23.3083 4.25 22.625 4.15C21.9417 4.05 21.2333 4 20.5 4C16.0333 4 12.25 5.55 9.15 8.65C6.05 11.75 4.5 15.5333 4.5 20H14.5C16.7 20 18.5833 20.7833 20.15 22.35C21.7167 23.9167 22.5 25.8 22.5 28V30H16.5V35.5C17.1667 35.6667 17.825 35.7917 18.475 35.875C19.125 35.9583 19.8 36 20.5 36Z" fill="white"/>
</svg>
