<svg width="22" height="20" viewBox="0 0 22 20" fill="none" xmlns="http://www.w3.org/2000/svg">
<path d="M10.875 18C10.9417 18 11.0083 17.9833 11.075 17.95C11.1417 17.9167 11.1917 17.8833 11.225 17.85L19.425 9.65C19.625 9.45 19.7708 9.225 19.8625 8.975C19.9542 8.725 20 8.475 20 8.225C20 7.95833 19.9542 7.70417 19.8625 7.4625C19.7708 7.22083 19.625 7.00833 19.425 6.825L15.175 2.575C14.9917 2.375 14.7792 2.22917 14.5375 2.1375C14.2958 2.04583 14.0417 2 13.775 2C13.525 2 13.275 2.04583 13.025 2.1375C12.775 2.22917 12.55 2.375 12.35 2.575L12.075 2.85L13.925 4.725C14.175 4.95833 14.3583 5.225 14.475 5.525C14.5917 5.825 14.65 6.14167 14.65 6.475C14.65 7.175 14.4125 7.7625 13.9375 8.2375C13.4625 8.7125 12.875 8.95 12.175 8.95C11.8417 8.95 11.5208 8.89167 11.2125 8.775C10.9042 8.65833 10.6333 8.48333 10.4 8.25L8.52499 6.4L4.14999 10.775C4.09999 10.825 4.06249 10.8792 4.03749 10.9375C4.01249 10.9958 3.99999 11.0583 3.99999 11.125C3.99999 11.2583 4.04999 11.3792 4.14999 11.4875C4.24999 11.5958 4.36666 11.65 4.49999 11.65C4.56666 11.65 4.63333 11.6333 4.69999 11.6C4.76666 11.5667 4.81666 11.5333 4.84999 11.5L7.54999 8.8C7.73333 8.61667 7.96249 8.52083 8.23749 8.5125C8.51249 8.50417 8.74999 8.6 8.94999 8.8C9.13333 8.98333 9.22499 9.21667 9.22499 9.5C9.22499 9.78333 9.13333 10.0167 8.94999 10.2L6.27499 12.9C6.22499 12.95 6.18749 13.0042 6.16249 13.0625C6.13749 13.1208 6.12499 13.1833 6.12499 13.25C6.12499 13.3833 6.17499 13.5 6.27499 13.6C6.37499 13.7 6.49166 13.75 6.62499 13.75C6.69166 13.75 6.75833 13.7333 6.82499 13.7C6.89166 13.6667 6.94166 13.6333 6.97499 13.6L9.67499 10.925C9.85833 10.7417 10.0875 10.6458 10.3625 10.6375C10.6375 10.6292 10.875 10.725 11.075 10.925C11.2583 11.1083 11.35 11.3417 11.35 11.625C11.35 11.9083 11.2583 12.1417 11.075 12.325L8.39999 15.025C8.34999 15.0583 8.31249 15.1083 8.28749 15.175C8.26249 15.2417 8.24999 15.3083 8.24999 15.375C8.24999 15.5083 8.29999 15.625 8.39999 15.725C8.49999 15.825 8.61666 15.875 8.74999 15.875C8.81666 15.875 8.87916 15.8625 8.93749 15.8375C8.99583 15.8125 9.04999 15.775 9.09999 15.725L11.8 13.05C11.9833 12.8667 12.2125 12.7708 12.4875 12.7625C12.7625 12.7542 13 12.85 13.2 13.05C13.3833 13.2333 13.475 13.4667 13.475 13.75C13.475 14.0333 13.3833 14.2667 13.2 14.45L10.5 17.15C10.45 17.2 10.4125 17.2542 10.3875 17.3125C10.3625 17.3708 10.35 17.4333 10.35 17.5C10.35 17.6333 10.4042 17.75 10.5125 17.85C10.6208 17.95 10.7417 18 10.875 18ZM10.85 20C10.2333 20 9.68749 19.7958 9.21249 19.3875C8.73749 18.9792 8.45833 18.4667 8.37499 17.85C7.80833 17.7667 7.33333 17.5333 6.94999 17.15C6.56666 16.7667 6.33333 16.2917 6.24999 15.725C5.68333 15.6417 5.21249 15.4042 4.83749 15.0125C4.46249 14.6208 4.23333 14.15 4.14999 13.6C3.51666 13.5167 2.99999 13.2417 2.59999 12.775C2.19999 12.3083 1.99999 11.7583 1.99999 11.125C1.99999 10.7917 2.06249 10.4708 2.18749 10.1625C2.31249 9.85417 2.49166 9.58333 2.72499 9.35L7.09999 4.975C7.48333 4.59167 7.95416 4.4 8.51249 4.4C9.07083 4.4 9.54166 4.59167 9.92499 4.975L11.8 6.85C11.8333 6.9 11.8833 6.9375 11.95 6.9625C12.0167 6.9875 12.0833 7 12.15 7C12.3 7 12.425 6.95417 12.525 6.8625C12.625 6.77083 12.675 6.65 12.675 6.5C12.675 6.43333 12.6625 6.36667 12.6375 6.3C12.6125 6.23333 12.575 6.18333 12.525 6.15L8.94999 2.575C8.76666 2.375 8.55416 2.22917 8.31249 2.1375C8.07083 2.04583 7.81666 2 7.54999 2C7.29999 2 7.04999 2.04583 6.79999 2.1375C6.54999 2.22917 6.32499 2.375 6.12499 2.575L2.59999 6.125C2.36666 6.35833 2.19999 6.63333 2.09999 6.95C1.99999 7.26667 1.97499 7.58333 2.02499 7.9C2.07499 8.18333 2.01666 8.43333 1.84999 8.65C1.68333 8.86667 1.45833 8.99167 1.17499 9.025C0.891661 9.05833 0.641661 8.99583 0.424994 8.8375C0.208328 8.67917 0.0833276 8.45833 0.0499942 8.175C-0.0500058 7.54167 -0.00417241 6.92083 0.187494 6.3125C0.379161 5.70417 0.708328 5.16667 1.17499 4.7L4.69999 1.175C5.09999 0.791667 5.54583 0.5 6.03749 0.3C6.52916 0.1 7.03333 0 7.54999 0C8.06666 0 8.57083 0.1 9.06249 0.3C9.55416 0.5 9.99166 0.791667 10.375 1.175L10.65 1.45L10.925 1.175C11.325 0.791667 11.7708 0.5 12.2625 0.3C12.7542 0.1 13.2583 0 13.775 0C14.2917 0 14.7958 0.1 15.2875 0.3C15.7792 0.5 16.2167 0.791667 16.6 1.175L20.825 5.4C21.2083 5.78333 21.5 6.225 21.7 6.725C21.9 7.225 22 7.73333 22 8.25C22 8.76667 21.9 9.27083 21.7 9.7625C21.5 10.2542 21.2083 10.6917 20.825 11.075L12.625 19.25C12.3917 19.4833 12.1208 19.6667 11.8125 19.8C11.5042 19.9333 11.1833 20 10.85 20Z" fill="#1C1B1F"/>
</svg>
