<svg width="40" height="38" viewBox="0 0 40 38" fill="none" xmlns="http://www.w3.org/2000/svg">
<path d="M6 28L5.2 27.3C3.46667 25.7667 2.25 24.0167 1.55 22.05C0.85 20.0833 0.5 18.1 0.5 16.1C0.5 12.9667 1.29167 10.125 2.875 7.575C4.45833 5.025 6.6 3.06667 9.3 1.7C9.76667 1.43333 10.2667 1.41667 10.8 1.65C11.3333 1.88333 11.6833 2.26667 11.85 2.8C12.0167 3.3 12.0083 3.8 11.825 4.3C11.6417 4.8 11.3167 5.18333 10.85 5.45C8.91667 6.51667 7.375 7.99167 6.225 9.875C5.075 11.7583 4.5 13.8333 4.5 16.1C4.5 17.6 4.78333 19.0583 5.35 20.475C5.91667 21.8917 6.8 23.2 8 24.4L8.5 24.9V22C8.5 21.4333 8.69167 20.9583 9.075 20.575C9.45833 20.1917 9.93333 20 10.5 20C11.0667 20 11.5417 20.1917 11.925 20.575C12.3083 20.9583 12.5 21.4333 12.5 22V30C12.5 30.5667 12.3083 31.0417 11.925 31.425C11.5417 31.8083 11.0667 32 10.5 32H2.5C1.93333 32 1.45833 31.8083 1.075 31.425C0.691667 31.0417 0.5 30.5667 0.5 30C0.5 29.4333 0.691667 28.9583 1.075 28.575C1.45833 28.1917 1.93333 28 2.5 28H6ZM28.5 7.1V10C28.5 10.5667 28.3083 11.0417 27.925 11.425C27.5417 11.8083 27.0667 12 26.5 12C25.9333 12 25.4583 11.8083 25.075 11.425C24.6917 11.0417 24.5 10.5667 24.5 10V2C24.5 1.43333 24.6917 0.958333 25.075 0.575C25.4583 0.191667 25.9333 0 26.5 0H34.5C35.0667 0 35.5417 0.191667 35.925 0.575C36.3083 0.958333 36.5 1.43333 36.5 2C36.5 2.56667 36.3083 3.04167 35.925 3.425C35.5417 3.80833 35.0667 4 34.5 4H31L31.8 4.7C33.1667 6.1 34.2167 7.58333 34.95 9.15C35.6833 10.7167 36.15 12.3333 36.35 14H32.3C32.1333 12.8333 31.775 11.7167 31.225 10.65C30.675 9.58333 29.9333 8.56667 29 7.6L28.5 7.1ZM29.3 38C29.0333 38 28.825 37.925 28.675 37.775C28.525 37.625 28.4167 37.4333 28.35 37.2L27.9 35C27.5 34.8333 27.125 34.6583 26.775 34.475C26.425 34.2917 26.0667 34.0667 25.7 33.8L23.55 34.45C23.3167 34.5167 23.1 34.5083 22.9 34.425C22.7 34.3417 22.5333 34.2 22.4 34L21.2 32C21.0667 31.8 21.0333 31.5833 21.1 31.35C21.1667 31.1167 21.2833 30.9167 21.45 30.75L23.1 29.3C23.0333 28.8333 23 28.4 23 28C23 27.6 23.0333 27.1667 23.1 26.7L21.45 25.25C21.2833 25.0833 21.1667 24.8833 21.1 24.65C21.0333 24.4167 21.0667 24.2 21.2 24L22.4 22C22.5333 21.8 22.7 21.6583 22.9 21.575C23.1 21.4917 23.3167 21.4833 23.55 21.55L25.7 22.2C26.0667 21.9333 26.425 21.7083 26.775 21.525C27.125 21.3417 27.5 21.1667 27.9 21L28.35 18.8C28.4167 18.5667 28.525 18.375 28.675 18.225C28.825 18.075 29.0333 18 29.3 18H31.7C31.9667 18 32.175 18.075 32.325 18.225C32.475 18.375 32.5833 18.5667 32.65 18.8L33.1 21C33.5 21.1667 33.875 21.35 34.225 21.55C34.575 21.75 34.9333 22 35.3 22.3L37.4 21.55C37.6333 21.4833 37.8583 21.4917 38.075 21.575C38.2917 21.6583 38.4667 21.8 38.6 22L39.8 24.1C39.9333 24.3 39.975 24.5167 39.925 24.75C39.875 24.9833 39.7667 25.1833 39.6 25.35L37.9 26.8C37.9667 27.2 38 27.6167 38 28.05C38 28.4833 37.9667 28.9 37.9 29.3L39.55 30.75C39.7167 30.9167 39.8333 31.1167 39.9 31.35C39.9667 31.5833 39.9333 31.8 39.8 32L38.6 34C38.4667 34.2 38.3 34.3417 38.1 34.425C37.9 34.5083 37.6833 34.5167 37.45 34.45L35.3 33.8C34.9333 34.0667 34.575 34.2917 34.225 34.475C33.875 34.6583 33.5 34.8333 33.1 35L32.65 37.2C32.5833 37.4333 32.475 37.625 32.325 37.775C32.175 37.925 31.9667 38 31.7 38H29.3ZM30.5 32C31.6 32 32.5417 31.6083 33.325 30.825C34.1083 30.0417 34.5 29.1 34.5 28C34.5 26.9 34.1083 25.9583 33.325 25.175C32.5417 24.3917 31.6 24 30.5 24C29.4 24 28.4583 24.3917 27.675 25.175C26.8917 25.9583 26.5 26.9 26.5 28C26.5 29.1 26.8917 30.0417 27.675 30.825C28.4583 31.6083 29.4 32 30.5 32Z" fill="white"/>
</svg>
