<svg width="41" height="38" viewBox="0 0 41 38" fill="none" xmlns="http://www.w3.org/2000/svg">
<path d="M2.5 38C1.93333 38 1.45833 37.8083 1.075 37.425C0.691667 37.0417 0.5 36.5667 0.5 36C0.5 35.4333 0.691667 34.9583 1.075 34.575C1.45833 34.1917 1.93333 34 2.5 34H18.5V11.65C17.6333 11.35 16.8833 10.8833 16.25 10.25C15.6167 9.61667 15.15 8.86667 14.85 8H8.5L14 20.9C14.1667 21.2667 14.2667 21.6417 14.3 22.025C14.3333 22.4083 14.3167 22.8 14.25 23.2C13.95 24.7333 13.125 25.9167 11.775 26.75C10.425 27.5833 9 28 7.5 28C6 28 4.575 27.5833 3.225 26.75C1.875 25.9167 1.05 24.7333 0.75 23.2C0.683333 22.8 0.666667 22.4083 0.7 22.025C0.733333 21.6417 0.833333 21.2667 1 20.9L6.5 8H4.5C3.93333 8 3.45833 7.80833 3.075 7.425C2.69167 7.04167 2.5 6.56667 2.5 6C2.5 5.43333 2.69167 4.95833 3.075 4.575C3.45833 4.19167 3.93333 4 4.5 4H14.85C15.25 2.83333 15.9667 1.875 17 1.125C18.0333 0.375 19.2 0 20.5 0C21.8 0 22.9667 0.375 24 1.125C25.0333 1.875 25.75 2.83333 26.15 4H36.5C37.0667 4 37.5417 4.19167 37.925 4.575C38.3083 4.95833 38.5 5.43333 38.5 6C38.5 6.56667 38.3083 7.04167 37.925 7.425C37.5417 7.80833 37.0667 8 36.5 8H34.5L40 20.9C40.1667 21.2667 40.2667 21.6417 40.3 22.025C40.3333 22.4083 40.3167 22.8 40.25 23.2C39.95 24.7333 39.125 25.9167 37.775 26.75C36.425 27.5833 35 28 33.5 28C32 28 30.575 27.5833 29.225 26.75C27.875 25.9167 27.05 24.7333 26.75 23.2C26.6833 22.8 26.6667 22.4083 26.7 22.025C26.7333 21.6417 26.8333 21.2667 27 20.9L32.5 8H26.15C25.85 8.86667 25.3833 9.61667 24.75 10.25C24.1167 10.8833 23.3667 11.35 22.5 11.65V34H38.5C39.0667 34 39.5417 34.1917 39.925 34.575C40.3083 34.9583 40.5 35.4333 40.5 36C40.5 36.5667 40.3083 37.0417 39.925 37.425C39.5417 37.8083 39.0667 38 38.5 38H2.5ZM29.75 22H37.25L33.5 13.3L29.75 22ZM3.75 22H11.25L7.5 13.3L3.75 22ZM20.5 8C21.0667 8 21.5417 7.80833 21.925 7.425C22.3083 7.04167 22.5 6.56667 22.5 6C22.5 5.43333 22.3083 4.95833 21.925 4.575C21.5417 4.19167 21.0667 4 20.5 4C19.9333 4 19.4583 4.19167 19.075 4.575C18.6917 4.95833 18.5 5.43333 18.5 6C18.5 6.56667 18.6917 7.04167 19.075 7.425C19.4583 7.80833 19.9333 8 20.5 8Z" fill="white"/>
</svg>
