<svg width="39" height="42" viewBox="0 0 39 42" fill="none" xmlns="http://www.w3.org/2000/svg">
<path d="M4.5 38H28.5V18H4.5V38ZM16.5 32C17.6 32 18.5417 31.6083 19.325 30.825C20.1083 30.0417 20.5 29.1 20.5 28C20.5 26.9 20.1083 25.9583 19.325 25.175C18.5417 24.3917 17.6 24 16.5 24C15.4 24 14.4583 24.3917 13.675 25.175C12.8917 25.9583 12.5 26.9 12.5 28C12.5 29.1 12.8917 30.0417 13.675 30.825C14.4583 31.6083 15.4 32 16.5 32ZM4.5 42C3.4 42 2.45833 41.6083 1.675 40.825C0.891667 40.0417 0.5 39.1 0.5 38V18C0.5 16.9 0.891667 15.9583 1.675 15.175C2.45833 14.3917 3.4 14 4.5 14H18.5V10C18.5 7.23333 19.475 4.875 21.425 2.925C23.375 0.975 25.7333 0 28.5 0C30.8667 0 32.9333 0.716667 34.7 2.15C36.4667 3.58333 37.6333 5.38333 38.2 7.55C38.3667 8.11667 38.2583 8.66667 37.875 9.2C37.4917 9.73333 37.0333 10 36.5 10C35.9333 10 35.4667 9.88333 35.1 9.65C34.7333 9.41667 34.4667 9.03333 34.3 8.5C33.9333 7.23333 33.225 6.16667 32.175 5.3C31.125 4.43333 29.9 4 28.5 4C26.8333 4 25.4167 4.58333 24.25 5.75C23.0833 6.91667 22.5 8.33333 22.5 10V14H28.5C29.6 14 30.5417 14.3917 31.325 15.175C32.1083 15.9583 32.5 16.9 32.5 18V38C32.5 39.1 32.1083 40.0417 31.325 40.825C30.5417 41.6083 29.6 42 28.5 42H4.5Z" fill="white"/>
</svg>
