<svg width="72" height="72" viewBox="0 0 72 72" fill="none" xmlns="http://www.w3.org/2000/svg">
<mask id="mask0_356_543" style="mask-type:alpha" maskUnits="userSpaceOnUse" x="0" y="0" width="72" height="72">
<rect width="72" height="72" fill="#D9D9D9"/>
</mask>
<g mask="url(#mask0_356_543)">
<path d="M11.4915 63C10.7805 63 10.1875 62.7605 9.7125 62.2815C9.2375 61.802 9 61.2082 9 60.5002V57.2002C9 56.4917 9.2405 55.898 9.7215 55.419C10.202 54.9395 10.7977 54.6997 11.5087 54.6997C12.2197 54.6997 12.8128 54.9395 13.2878 55.419C13.7628 55.898 14.0002 56.4917 14.0002 57.2002V60.5002C14.0002 61.2082 13.7598 61.802 13.2788 62.2815C12.7978 62.7605 12.202 63 11.4915 63ZM23.7412 63C23.0302 63 22.4372 62.7605 21.9622 62.2815C21.4872 61.802 21.2497 61.2082 21.2497 60.5002V44.7C21.2497 43.9915 21.4903 43.3977 21.9713 42.9187C22.4523 42.4397 23.048 42.2002 23.7585 42.2002C24.4695 42.2002 25.0625 42.4397 25.5375 42.9187C26.0125 43.3977 26.25 43.9915 26.25 44.7V60.5002C26.25 61.2082 26.0095 61.802 25.5285 62.2815C25.048 62.7605 24.4522 63 23.7412 63ZM35.991 63C35.2805 63 34.6877 62.7605 34.2127 62.2815C33.7378 61.802 33.5003 61.2082 33.5003 60.5002V49.7002C33.5003 48.9917 33.7405 48.398 34.221 47.919C34.702 47.4395 35.298 47.1997 36.009 47.1997C36.7195 47.1997 37.3122 47.4395 37.7872 47.919C38.2622 48.398 38.4998 48.9917 38.4998 49.7002V60.5002C38.4998 61.2082 38.2595 61.802 37.779 62.2815C37.298 62.7605 36.702 63 35.991 63ZM48.2415 63C47.5305 63 46.9375 62.7605 46.4625 62.2815C45.9875 61.802 45.75 61.2082 45.75 60.5002V43.2C45.75 42.4915 45.9905 41.8977 46.4715 41.4187C46.952 40.9397 47.5477 40.7002 48.2588 40.7002C48.9697 40.7002 49.5627 40.9397 50.0378 41.4187C50.5127 41.8977 50.7503 42.4915 50.7503 43.2V60.5002C50.7503 61.2082 50.5098 61.802 50.0288 62.2815C49.5477 62.7605 48.952 63 48.2415 63ZM60.4912 63C59.7803 63 59.1873 62.7605 58.7122 62.2815C58.2373 61.802 57.9997 61.2082 57.9997 60.5002V33.2002C57.9997 32.4917 58.2402 31.898 58.7212 31.419C59.2023 30.9395 59.798 30.6997 60.5085 30.6997C61.2195 30.6997 61.8125 30.9395 62.2875 31.419C62.7625 31.898 63 32.4917 63 33.2002V60.5002C63 61.2082 62.7595 61.802 62.2785 62.2815C61.798 62.7605 61.2023 63 60.4912 63ZM41.9753 35.025C41.3252 35.025 40.6965 34.8967 40.089 34.6402C39.482 34.3837 38.9272 34.0202 38.4248 33.5497L30 25.125L13.2997 41.775C12.7977 42.275 12.2015 42.5125 11.511 42.4875C10.8205 42.4625 10.2272 42.2 9.73125 41.7C9.27725 41.2 9.046 40.6125 9.0375 39.9375C9.029 39.2625 9.2665 38.6832 9.75 38.1997L26.475 21.5752C26.9775 21.0792 27.5323 20.7177 28.1393 20.4907C28.7463 20.2637 29.3665 20.1502 30 20.1502C30.6335 20.1502 31.2643 20.2637 31.8923 20.4907C32.5203 20.7177 33.0645 21.0792 33.525 21.5752L42 30.0502L58.7498 13.2997C59.2498 12.7997 59.8372 12.554 60.5123 12.5625C61.1873 12.571 61.7727 12.8252 62.2687 13.3252C62.7227 13.8252 62.954 14.4127 62.9625 15.0877C62.971 15.7627 62.7335 16.3417 62.25 16.8247L45.525 33.5497C45.075 34.0332 44.5333 34.4 43.8998 34.65C43.2668 34.9 42.6253 35.025 41.9753 35.025Z" fill="#004E9B"/>
</g>
</svg>
