<svg width="49" height="49" viewBox="0 0 49 49" fill="none" xmlns="http://www.w3.org/2000/svg">
<mask id="mask0_249_742" style="mask-type:alpha" maskUnits="userSpaceOnUse" x="0" y="0" width="49" height="49">
<rect x="0.5" y="0.708496" width="48" height="48" fill="#D9D9D9"/>
</mask>
<g mask="url(#mask0_249_742)">
<path d="M12.5 44.7085V36.1085C10.6 34.3752 9.125 32.3502 8.075 30.0335C7.025 27.7168 6.5 25.2752 6.5 22.7085C6.5 17.7085 8.25 13.4585 11.75 9.9585C15.25 6.4585 19.5 4.7085 24.5 4.7085C28.6667 4.7085 32.3583 5.9335 35.575 8.3835C38.7917 10.8335 40.8833 14.0252 41.85 17.9585L44.45 28.2085C44.6167 28.8418 44.5 29.4168 44.1 29.9335C43.7 30.4502 43.1667 30.7085 42.5 30.7085H38.5V36.7085C38.5 37.8085 38.1083 38.7502 37.325 39.5335C36.5417 40.3168 35.6 40.7085 34.5 40.7085H30.5V44.7085H26.5V36.7085H34.5V26.7085H39.9L38 18.9585C37.2333 15.9252 35.6 13.4585 33.1 11.5585C30.6 9.6585 27.7333 8.7085 24.5 8.7085C20.6333 8.7085 17.3333 10.0585 14.6 12.7585C11.8667 15.4585 10.5 18.7418 10.5 22.6085C10.5 24.6085 10.9083 26.5085 11.725 28.3085C12.5417 30.1085 13.7 31.7085 15.2 33.1085L16.5 34.3085V44.7085H12.5ZM22.5 30.7085H26.5L26.8 28.2085C27.0667 28.1085 27.3083 27.9918 27.525 27.8585C27.7417 27.7252 27.9333 27.5752 28.1 27.4085L30.4 28.4085L32.4 25.0085L30.4 23.5085C30.4667 23.2418 30.5 22.9752 30.5 22.7085C30.5 22.4418 30.4667 22.1752 30.4 21.9085L32.4 20.4085L30.4 17.0085L28.1 18.0085C27.9333 17.8418 27.7417 17.6918 27.525 17.5585C27.3083 17.4252 27.0667 17.3085 26.8 17.2085L26.5 14.7085H22.5L22.2 17.2085C21.9333 17.3085 21.6917 17.4252 21.475 17.5585C21.2583 17.6918 21.0667 17.8418 20.9 18.0085L18.6 17.0085L16.6 20.4085L18.6 21.9085C18.5333 22.1752 18.5 22.4418 18.5 22.7085C18.5 22.9752 18.5333 23.2418 18.6 23.5085L16.6 25.0085L18.6 28.4085L20.9 27.4085C21.0667 27.5752 21.2583 27.7252 21.475 27.8585C21.6917 27.9918 21.9333 28.1085 22.2 28.2085L22.5 30.7085ZM24.5 25.7085C23.6667 25.7085 22.9583 25.4168 22.375 24.8335C21.7917 24.2502 21.5 23.5418 21.5 22.7085C21.5 21.8752 21.7917 21.1668 22.375 20.5835C22.9583 20.0002 23.6667 19.7085 24.5 19.7085C25.3333 19.7085 26.0417 20.0002 26.625 20.5835C27.2083 21.1668 27.5 21.8752 27.5 22.7085C27.5 23.5418 27.2083 24.2502 26.625 24.8335C26.0417 25.4168 25.3333 25.7085 24.5 25.7085Z" fill="#004E9B"/>
</g>
</svg>
