<svg width="96" height="97" viewBox="0 0 96 97" fill="none" xmlns="http://www.w3.org/2000/svg">
<rect y="0.708496" width="96" height="96" rx="48" fill="#0071B8"/>
<mask id="mask0_271_711" style="mask-type:alpha" maskUnits="userSpaceOnUse" x="24" y="24" width="48" height="49">
<rect x="24" y="24.7085" width="48" height="48" fill="#D9D9D9"/>
</mask>
<g mask="url(#mask0_271_711)">
<path d="M36.0999 60.2585C35.4332 59.8919 34.9166 59.4002 34.5499 58.7835C34.1832 58.1669 33.9999 57.4752 33.9999 56.7085V47.1085L29.1999 44.4585C28.8332 44.2585 28.5666 44.0085 28.3999 43.7085C28.2332 43.4085 28.1499 43.0752 28.1499 42.7085C28.1499 42.3419 28.2332 42.0085 28.3999 41.7085C28.5666 41.4085 28.8332 41.1585 29.1999 40.9585L46.0999 31.7585C46.3999 31.5919 46.7082 31.4669 47.0249 31.3835C47.3416 31.3002 47.6666 31.2585 47.9999 31.2585C48.3332 31.2585 48.6582 31.3002 48.9749 31.3835C49.2916 31.4669 49.5999 31.5919 49.8999 31.7585L68.9499 42.1585C69.2832 42.3252 69.5416 42.5669 69.7249 42.8835C69.9082 43.2002 69.9999 43.5419 69.9999 43.9085V56.7085C69.9999 57.2752 69.8082 57.7502 69.4249 58.1335C69.0416 58.5169 68.5666 58.7085 67.9999 58.7085C67.4332 58.7085 66.9582 58.5169 66.5749 58.1335C66.1916 57.7502 65.9999 57.2752 65.9999 56.7085V44.9085L61.9999 47.1085V56.7085C61.9999 57.4752 61.8166 58.1669 61.4499 58.7835C61.0832 59.4002 60.5666 59.8919 59.8999 60.2585L49.8999 65.6585C49.5999 65.8252 49.2916 65.9502 48.9749 66.0335C48.6582 66.1169 48.3332 66.1585 47.9999 66.1585C47.6666 66.1585 47.3416 66.1169 47.0249 66.0335C46.7082 65.9502 46.3999 65.8252 46.0999 65.6585L36.0999 60.2585ZM47.9999 50.1085L61.6999 42.7085L47.9999 35.3085L34.2999 42.7085L47.9999 50.1085ZM47.9999 62.1585L57.9999 56.7585V49.2085L49.9499 53.6585C49.6499 53.8252 49.3332 53.9502 48.9999 54.0335C48.6666 54.1169 48.3332 54.1585 47.9999 54.1585C47.6666 54.1585 47.3332 54.1169 46.9999 54.0335C46.6666 53.9502 46.3499 53.8252 46.0499 53.6585L37.9999 49.2085V56.7585L47.9999 62.1585Z" fill="white"/>
</g>
</svg>
