<svg width="49" height="49" viewBox="0 0 49 49" fill="none" xmlns="http://www.w3.org/2000/svg">
<mask id="mask0_249_737" style="mask-type:alpha" maskUnits="userSpaceOnUse" x="0" y="0" width="49" height="49">
<rect x="0.5" y="0.708496" width="48" height="48" fill="#D9D9D9"/>
</mask>
<g mask="url(#mask0_249_737)">
<path d="M31.5 22.7085C32.3333 22.7085 33.0417 22.4168 33.625 21.8335C34.2083 21.2502 34.5 20.5418 34.5 19.7085C34.5 18.8752 34.2083 18.1668 33.625 17.5835C33.0417 17.0002 32.3333 16.7085 31.5 16.7085C30.6667 16.7085 29.9583 17.0002 29.375 17.5835C28.7917 18.1668 28.5 18.8752 28.5 19.7085C28.5 20.5418 28.7917 21.2502 29.375 21.8335C29.9583 22.4168 30.6667 22.7085 31.5 22.7085ZM17.5 22.7085C18.3333 22.7085 19.0417 22.4168 19.625 21.8335C20.2083 21.2502 20.5 20.5418 20.5 19.7085C20.5 18.8752 20.2083 18.1668 19.625 17.5835C19.0417 17.0002 18.3333 16.7085 17.5 16.7085C16.6667 16.7085 15.9583 17.0002 15.375 17.5835C14.7917 18.1668 14.5 18.8752 14.5 19.7085C14.5 20.5418 14.7917 21.2502 15.375 21.8335C15.9583 22.4168 16.6667 22.7085 17.5 22.7085ZM24.5 35.7085C26.7667 35.7085 28.825 35.0668 30.675 33.7835C32.525 32.5002 33.8667 30.8085 34.7 28.7085H31.4C30.6667 29.9418 29.6917 30.9168 28.475 31.6335C27.2583 32.3502 25.9333 32.7085 24.5 32.7085C23.0667 32.7085 21.7417 32.3502 20.525 31.6335C19.3083 30.9168 18.3333 29.9418 17.6 28.7085H14.3C15.1333 30.8085 16.475 32.5002 18.325 33.7835C20.175 35.0668 22.2333 35.7085 24.5 35.7085ZM24.5 44.7085C21.7333 44.7085 19.1333 44.1835 16.7 43.1335C14.2667 42.0835 12.15 40.6585 10.35 38.8585C8.55 37.0585 7.125 34.9418 6.075 32.5085C5.025 30.0752 4.5 27.4752 4.5 24.7085C4.5 21.9418 5.025 19.3418 6.075 16.9085C7.125 14.4752 8.55 12.3585 10.35 10.5585C12.15 8.7585 14.2667 7.3335 16.7 6.2835C19.1333 5.2335 21.7333 4.7085 24.5 4.7085C27.2667 4.7085 29.8667 5.2335 32.3 6.2835C34.7333 7.3335 36.85 8.7585 38.65 10.5585C40.45 12.3585 41.875 14.4752 42.925 16.9085C43.975 19.3418 44.5 21.9418 44.5 24.7085C44.5 27.4752 43.975 30.0752 42.925 32.5085C41.875 34.9418 40.45 37.0585 38.65 38.8585C36.85 40.6585 34.7333 42.0835 32.3 43.1335C29.8667 44.1835 27.2667 44.7085 24.5 44.7085ZM24.5 40.7085C28.9667 40.7085 32.75 39.1585 35.85 36.0585C38.95 32.9585 40.5 29.1752 40.5 24.7085C40.5 20.2418 38.95 16.4585 35.85 13.3585C32.75 10.2585 28.9667 8.7085 24.5 8.7085C20.0333 8.7085 16.25 10.2585 13.15 13.3585C10.05 16.4585 8.5 20.2418 8.5 24.7085C8.5 29.1752 10.05 32.9585 13.15 36.0585C16.25 39.1585 20.0333 40.7085 24.5 40.7085Z" fill="#004E9B"/>
</g>
</svg>
