<svg width="49" height="38" viewBox="0 0 49 38" fill="none" xmlns="http://www.w3.org/2000/svg">
<path d="M24.5 5C25.8 3.43333 27.4 2.20833 29.3 1.325C31.2 0.441667 33.2 0 35.3 0C38.9667 0 42.0833 1.28333 44.65 3.85C47.2167 6.41667 48.5 9.53333 48.5 13.2C48.5 13.8333 48.4583 14.4583 48.375 15.075C48.2917 15.6917 48.1667 16.3 48 16.9C47.8333 17.4667 47.5167 17.9167 47.05 18.25C46.5833 18.5833 46.0667 18.6667 45.5 18.5C44.9667 18.3667 44.5583 18.0667 44.275 17.6C43.9917 17.1333 43.9333 16.6333 44.1 16.1C44.2333 15.6333 44.3333 15.1583 44.4 14.675C44.4667 14.1917 44.5 13.7 44.5 13.2C44.5 10.6333 43.6083 8.45833 41.825 6.675C40.0417 4.89167 37.8667 4 35.3 4C33.4667 4 31.8 4.50833 30.3 5.525C28.8 6.54167 27.45 7.75 26.25 9.15C25.7833 9.71667 25.2 10 24.5 10C23.8 10 23.2167 9.71667 22.75 9.15C21.5833 7.75 20.2417 6.54167 18.725 5.525C17.2083 4.50833 15.5333 4 13.7 4C11.1333 4 8.95833 4.89167 7.175 6.675C5.39167 8.45833 4.5 10.6333 4.5 13.2C4.5 13.7 4.53333 14.1917 4.6 14.675C4.66667 15.1583 4.76667 15.6333 4.9 16.1C5.03333 16.6 4.95833 17.075 4.675 17.525C4.39167 17.975 4 18.2667 3.5 18.4C2.93333 18.5667 2.41667 18.5 1.95 18.2C1.48333 17.9 1.16667 17.4667 1 16.9C0.833333 16.3 0.708333 15.6917 0.625 15.075C0.541667 14.4583 0.5 13.8333 0.5 13.2C0.5 9.53333 1.78333 6.41667 4.35 3.85C6.91667 1.28333 10.0333 0 13.7 0C15.8 0 17.8 0.441667 19.7 1.325C21.6 2.20833 23.2 3.43333 24.5 5ZM2.5 38C1.93333 38 1.45833 37.8083 1.075 37.425C0.691667 37.0417 0.5 36.5667 0.5 36V34.85C0.5 33.8167 0.883333 32.9167 1.65 32.15C2.41667 31.3833 3.46667 30.8167 4.8 30.45C5.66667 30.1833 6.45 30.0333 7.15 30C7.85 29.9667 8.6 29.9833 9.4 30.05C9.73333 30.0833 9.975 30.2417 10.125 30.525C10.275 30.8083 10.2833 31.1 10.15 31.4C9.91667 31.9333 9.75 32.475 9.65 33.025C9.55 33.575 9.5 34.15 9.5 34.75V36C9.5 36.5667 9.30833 37.0417 8.925 37.425C8.54167 37.8083 8.06667 38 7.5 38H2.5ZM12.5 36V34.75C12.5 32.5833 13.6083 30.8333 15.825 29.5C18.0417 28.1667 20.9333 27.5 24.5 27.5C28.1 27.5 31 28.1667 33.2 29.5C35.4 30.8333 36.5 32.5833 36.5 34.75V36C36.5 36.5667 36.3083 37.0417 35.925 37.425C35.5417 37.8083 35.0667 38 34.5 38H14.5C13.9333 38 13.4583 37.8083 13.075 37.425C12.6917 37.0417 12.5 36.5667 12.5 36ZM41.5 38C40.9333 38 40.4583 37.8083 40.075 37.425C39.6917 37.0417 39.5 36.5667 39.5 36V34.75C39.5 34.15 39.45 33.575 39.35 33.025C39.25 32.475 39.0833 31.9333 38.85 31.4C38.7167 31.1 38.725 30.8083 38.875 30.525C39.025 30.2417 39.2667 30.0833 39.6 30.05C40.4 29.9833 41.15 29.9667 41.85 30C42.55 30.0333 43.3333 30.1833 44.2 30.45C45.5333 30.8167 46.5833 31.3833 47.35 32.15C48.1167 32.9167 48.5 33.8167 48.5 34.85V36C48.5 36.5667 48.3083 37.0417 47.925 37.425C47.5417 37.8083 47.0667 38 46.5 38H41.5ZM24.5 31.5C22.6 31.5 20.9 31.75 19.4 32.25C17.9 32.75 17.0167 33.3333 16.75 34H32.3C32 33.3333 31.1083 32.75 29.625 32.25C28.1417 31.75 26.4333 31.5 24.5 31.5ZM8.5 28C7.4 28 6.45833 27.6083 5.675 26.825C4.89167 26.0417 4.5 25.1 4.5 24C4.5 22.8667 4.89167 21.9167 5.675 21.15C6.45833 20.3833 7.4 20 8.5 20C9.63333 20 10.5833 20.3833 11.35 21.15C12.1167 21.9167 12.5 22.8667 12.5 24C12.5 25.1 12.1167 26.0417 11.35 26.825C10.5833 27.6083 9.63333 28 8.5 28ZM40.5 28C39.4 28 38.4583 27.6083 37.675 26.825C36.8917 26.0417 36.5 25.1 36.5 24C36.5 22.8667 36.8917 21.9167 37.675 21.15C38.4583 20.3833 39.4 20 40.5 20C41.6333 20 42.5833 20.3833 43.35 21.15C44.1167 21.9167 44.5 22.8667 44.5 24C44.5 25.1 44.1167 26.0417 43.35 26.825C42.5833 27.6083 41.6333 28 40.5 28ZM24.5 26C22.8333 26 21.4167 25.4167 20.25 24.25C19.0833 23.0833 18.5 21.6667 18.5 20C18.5 18.3 19.0833 16.875 20.25 15.725C21.4167 14.575 22.8333 14 24.5 14C26.2 14 27.625 14.575 28.775 15.725C29.925 16.875 30.5 18.3 30.5 20C30.5 21.6667 29.925 23.0833 28.775 24.25C27.625 25.4167 26.2 26 24.5 26ZM24.5 18C23.9333 18 23.4583 18.1917 23.075 18.575C22.6917 18.9583 22.5 19.4333 22.5 20C22.5 20.5667 22.6917 21.0417 23.075 21.425C23.4583 21.8083 23.9333 22 24.5 22C25.0667 22 25.5417 21.8083 25.925 21.425C26.3083 21.0417 26.5 20.5667 26.5 20C26.5 19.4333 26.3083 18.9583 25.925 18.575C25.5417 18.1917 25.0667 18 24.5 18Z" fill="white"/>
</svg>
