<svg width="24" height="24" viewBox="0 0 24 24" fill="none" xmlns="http://www.w3.org/2000/svg">
<mask id="mask0_52_468" style="mask-type:alpha" maskUnits="userSpaceOnUse" x="0" y="0" width="24" height="24">
<rect width="24" height="24" fill="#D9D9D9"/>
</mask>
<g mask="url(#mask0_52_468)">
<path d="M8.75001 16.7L7.75001 18.425C7.61668 18.6583 7.41251 18.8125 7.13751 18.8875C6.86251 18.9625 6.60834 18.9333 6.37501 18.8C6.14168 18.6667 5.98751 18.4625 5.91251 18.1875C5.83751 17.9125 5.86668 17.6583 6.00001 17.425L10.65 9.4C10.0167 8.75 9.54168 8.00833 9.22501 7.175C8.90834 6.34167 8.75001 5.48333 8.75001 4.6C8.75001 4.16667 8.78751 3.72917 8.86251 3.2875C8.93751 2.84583 9.06668 2.41667 9.25001 2C9.35001 1.75 9.53334 1.5875 9.80001 1.5125C10.0667 1.4375 10.3167 1.46667 10.55 1.6C10.7833 1.73333 10.9375 1.93333 11.0125 2.2C11.0875 2.46667 11.0833 2.73333 11 3C10.9167 3.25 10.8542 3.50417 10.8125 3.7625C10.7708 4.02083 10.75 4.28333 10.75 4.55C10.75 5.43333 10.9667 6.2625 11.4 7.0375C11.8333 7.8125 12.45 8.43333 13.25 8.9L15.5 10.2C16.5333 10.8 17.2917 11.6625 17.775 12.7875C18.2583 13.9125 18.5 14.9667 18.5 15.95C18.5 16.4 18.4583 16.8458 18.375 17.2875C18.2917 17.7292 18.1667 18.1583 18 18.575C17.9 18.8417 17.7167 19.0125 17.45 19.0875C17.1833 19.1625 16.925 19.1333 16.675 19C16.4417 18.8667 16.2833 18.6667 16.2 18.4C16.1167 18.1333 16.1167 17.8583 16.2 17.575C16.2833 17.3083 16.3458 17.0458 16.3875 16.7875C16.4292 16.5292 16.45 16.2667 16.45 16C16.45 15.4667 16.375 14.95 16.225 14.45C16.075 13.95 15.8333 13.4833 15.5 13.05L9.70001 23.025C9.56668 23.2583 9.36251 23.4125 9.08751 23.4875C8.81251 23.5625 8.55834 23.5333 8.32501 23.4C8.09168 23.2667 7.93751 23.0625 7.86251 22.7875C7.78751 22.5125 7.81668 22.2583 7.95001 22.025L10.45 17.7L8.75001 16.7ZM16 9C15.45 9 14.9792 8.80417 14.5875 8.4125C14.1958 8.02083 14 7.55 14 7C14 6.45 14.1958 5.97917 14.5875 5.5875C14.9792 5.19583 15.45 5 16 5C16.55 5 17.0208 5.19583 17.4125 5.5875C17.8042 5.97917 18 6.45 18 7C18 7.55 17.8042 8.02083 17.4125 8.4125C17.0208 8.80417 16.55 9 16 9ZM13.5 4C13.0667 4 12.7083 3.85 12.425 3.55C12.1417 3.25 12 2.9 12 2.5C12 2.06667 12.15 1.70833 12.45 1.425C12.75 1.14167 13.1 1 13.5 1C13.9333 1 14.2917 1.15 14.575 1.45C14.8583 1.75 15 2.1 15 2.5C15 2.93333 14.85 3.29167 14.55 3.575C14.25 3.85833 13.9 4 13.5 4Z" fill="#004e9b"/>
</g>
</svg>
