<svg width="65" height="66" viewBox="0 0 65 66" fill="none" xmlns="http://www.w3.org/2000/svg">
<g clip-path="url(#clip0_175_793)">
<path d="M1.86814 32.7393C1.86664 38.1581 3.28253 43.4492 5.97482 48.1129L1.61066 64.0471L17.9174 59.7715C22.4276 62.2267 27.481 63.5133 32.6162 63.5137H32.6297C49.5822 63.5137 63.3818 49.719 63.3891 32.7636C63.3923 24.5475 60.1956 16.8216 54.3875 11.009C48.5805 5.19697 40.8573 1.99447 32.6285 1.99072C15.6741 1.99072 1.87539 15.7846 1.86839 32.7393" fill="url(#paint0_linear_175_793)"/>
<path d="M0.769982 32.7294C0.768232 38.3433 2.23487 43.8236 5.02315 48.6542L0.502502 65.1597L17.3939 60.7308C22.0481 63.2683 27.2882 64.6062 32.6202 64.6082H32.634C50.1946 64.6082 64.49 50.3173 64.4975 32.7549C64.5005 24.2436 61.1888 16.24 55.1732 10.2192C49.157 4.19917 41.1576 0.881429 32.634 0.87793C15.0704 0.87793 0.776981 15.1668 0.769982 32.7294ZM10.8294 47.8223L10.1987 46.8211C7.54745 42.6054 6.14806 37.7338 6.15006 32.7314C6.15556 18.1338 18.0356 6.25751 32.644 6.25751C39.7184 6.26051 46.3669 9.01829 51.3675 14.0219C56.3679 19.026 59.1194 25.678 59.1177 32.7529C59.1112 47.3506 47.2309 59.2284 32.634 59.2284H32.6235C27.8706 59.2259 23.2092 57.9495 19.144 55.5374L18.1766 54.9637L8.15291 57.5918L10.8294 47.8223Z" fill="url(#paint1_linear_175_793)"/>
<path d="M24.6701 19.4137C24.0736 18.0881 23.4459 18.0613 22.8787 18.0381C22.4143 18.0181 21.8833 18.0196 21.3529 18.0196C20.8219 18.0196 19.9592 18.2193 19.23 19.0155C18.5001 19.8124 16.4432 21.7383 16.4432 25.6552C16.4432 29.5722 19.2963 33.3579 19.694 33.8896C20.0922 34.4203 25.2018 42.7156 33.2942 45.9069C40.0196 48.5589 41.3883 48.0315 42.8479 47.8985C44.3078 47.766 47.5586 45.9731 48.2218 44.114C48.8855 42.2552 48.8855 40.6618 48.6865 40.3288C48.4875 39.9971 47.9565 39.7979 47.1603 39.3999C46.3642 39.0019 42.4497 37.0756 41.72 36.8098C40.9901 36.5444 40.4594 36.4119 39.9284 37.2091C39.3974 38.005 37.8728 39.7979 37.4081 40.3288C36.9439 40.861 36.4792 40.9273 35.6832 40.529C34.8865 40.1296 32.3225 39.2899 29.2805 36.5779C26.9137 34.4675 25.3158 31.8615 24.8513 31.0643C24.3869 30.2684 24.8016 29.8369 25.2008 29.4402C25.5585 29.0834 25.9972 28.5105 26.3957 28.0458C26.7927 27.5808 26.9252 27.2491 27.1906 26.7181C27.4564 26.1867 27.3234 25.7217 27.1247 25.3235C26.9252 24.9253 25.378 20.9878 24.6701 19.4137Z" fill="white"/>
</g>
<defs>
<linearGradient id="paint0_linear_175_793" x1="3090.53" y1="6207.63" x2="3090.53" y2="1.99072" gradientUnits="userSpaceOnUse">
<stop stop-color="#1FAF38"/>
<stop offset="1" stop-color="#60D669"/>
</linearGradient>
<linearGradient id="paint1_linear_175_793" x1="3200.25" y1="6429.05" x2="3200.25" y2="0.87793" gradientUnits="userSpaceOnUse">
<stop stop-color="#F9F9F9"/>
<stop offset="1" stop-color="white"/>
</linearGradient>
<clipPath id="clip0_175_793">
<rect width="64" height="64.495" fill="white" transform="translate(0.5 0.87793)"/>
</clipPath>
</defs>
</svg>
