<svg width="45" height="40" viewBox="0 0 45 40" fill="none" xmlns="http://www.w3.org/2000/svg">
<path d="M22.25 36C22.3834 36 22.5167 35.9667 22.65 35.9C22.7834 35.8333 22.8834 35.7667 22.95 35.7L39.35 19.3C39.75 18.9 40.0417 18.45 40.225 17.95C40.4084 17.45 40.5 16.95 40.5 16.45C40.5 15.9167 40.4084 15.4083 40.225 14.925C40.0417 14.4417 39.75 14.0167 39.35 13.65L30.85 5.15C30.4834 4.75 30.0584 4.45833 29.575 4.275C29.0917 4.09167 28.5834 4 28.05 4C27.55 4 27.05 4.09167 26.55 4.275C26.05 4.45833 25.6 4.75 25.2 5.15L24.65 5.7L28.35 9.45C28.85 9.91667 29.2167 10.45 29.45 11.05C29.6834 11.65 29.8 12.2833 29.8 12.95C29.8 14.35 29.3251 15.525 28.375 16.475C27.425 17.425 26.25 17.9 24.85 17.9C24.1834 17.9 23.5417 17.7833 22.925 17.55C22.3084 17.3167 21.7667 16.9667 21.3 16.5L17.55 12.8L8.80005 21.55C8.70005 21.65 8.62505 21.7583 8.57505 21.875C8.52505 21.9917 8.50005 22.1167 8.50005 22.25C8.50005 22.5167 8.60005 22.7583 8.80005 22.975C9.00005 23.1917 9.23338 23.3 9.50005 23.3C9.63338 23.3 9.76672 23.2667 9.90005 23.2C10.0334 23.1333 10.1334 23.0667 10.2 23L15.6 17.6C15.9667 17.2333 16.425 17.0417 16.975 17.025C17.525 17.0083 18 17.2 18.4 17.6C18.7667 17.9667 18.95 18.4333 18.95 19C18.95 19.5667 18.7667 20.0333 18.4 20.4L13.05 25.8C12.95 25.9 12.875 26.0083 12.825 26.125C12.775 26.2417 12.75 26.3667 12.75 26.5C12.75 26.7667 12.85 27 13.05 27.2C13.25 27.4 13.4834 27.5 13.75 27.5C13.8834 27.5 14.0167 27.4667 14.15 27.4C14.2834 27.3333 14.3834 27.2667 14.45 27.2L19.85 21.85C20.2167 21.4833 20.6751 21.2917 21.225 21.275C21.775 21.2583 22.25 21.45 22.65 21.85C23.0167 22.2167 23.2 22.6833 23.2 23.25C23.2 23.8167 23.0167 24.2833 22.65 24.65L17.3 30.05C17.2 30.1167 17.125 30.2167 17.075 30.35C17.025 30.4833 17 30.6167 17 30.75C17 31.0167 17.1 31.25 17.3 31.45C17.5 31.65 17.7334 31.75 18 31.75C18.1334 31.75 18.2584 31.725 18.375 31.675C18.4917 31.625 18.6 31.55 18.7 31.45L24.1 26.1C24.4667 25.7333 24.9251 25.5417 25.475 25.525C26.025 25.5083 26.5 25.7 26.9 26.1C27.2667 26.4667 27.45 26.9333 27.45 27.5C27.45 28.0667 27.2667 28.5333 26.9 28.9L21.5 34.3C21.4 34.4 21.325 34.5083 21.275 34.625C21.225 34.7417 21.2 34.8667 21.2 35C21.2 35.2667 21.3084 35.5 21.525 35.7C21.7417 35.9 21.9834 36 22.25 36ZM22.2 40C20.9667 40 19.875 39.5917 18.925 38.775C17.975 37.9583 17.4167 36.9333 17.25 35.7C16.1167 35.5333 15.1667 35.0667 14.4 34.3C13.6334 33.5333 13.1667 32.5833 13 31.45C11.8667 31.2833 10.925 30.8083 10.175 30.025C9.42505 29.2417 8.96672 28.3 8.80005 27.2C7.53338 27.0333 6.50005 26.4833 5.70005 25.55C4.90005 24.6167 4.50005 23.5167 4.50005 22.25C4.50005 21.5833 4.62505 20.9417 4.87505 20.325C5.12505 19.7083 5.48338 19.1667 5.95005 18.7L14.7 9.95C15.4667 9.18333 16.4084 8.8 17.525 8.8C18.6417 8.8 19.5834 9.18333 20.35 9.95L24.1 13.7C24.1667 13.8 24.2667 13.875 24.4 13.925C24.5334 13.975 24.6667 14 24.8 14C25.1 14 25.35 13.9083 25.55 13.725C25.75 13.5417 25.85 13.3 25.85 13C25.85 12.8667 25.825 12.7333 25.775 12.6C25.725 12.4667 25.65 12.3667 25.55 12.3L18.4 5.15C18.0334 4.75 17.6084 4.45833 17.125 4.275C16.6417 4.09167 16.1334 4 15.6 4C15.1 4 14.6 4.09167 14.1 4.275C13.6 4.45833 13.15 4.75 12.75 5.15L5.70005 12.25C5.23338 12.7167 4.90005 13.2667 4.70005 13.9C4.50005 14.5333 4.45005 15.1667 4.55005 15.8C4.65005 16.3667 4.53338 16.8667 4.20005 17.3C3.86672 17.7333 3.41672 17.9833 2.85005 18.05C2.28338 18.1167 1.78338 17.9917 1.35005 17.675C0.916716 17.3583 0.666716 16.9167 0.60005 16.35C0.40005 15.0833 0.491716 13.8417 0.87505 12.625C1.25838 11.4083 1.91672 10.3333 2.85005 9.4L9.90005 2.35C10.7001 1.58333 11.5917 1 12.575 0.6C13.5584 0.2 14.5667 0 15.6 0C16.6334 0 17.6417 0.2 18.625 0.6C19.6084 1 20.4834 1.58333 21.25 2.35L21.8 2.9L22.35 2.35C23.15 1.58333 24.0417 1 25.025 0.6C26.0084 0.2 27.0167 0 28.05 0C29.0834 0 30.0917 0.2 31.075 0.6C32.0584 1 32.9334 1.58333 33.7001 2.35L42.1501 10.8C42.9167 11.5667 43.5 12.45 43.9001 13.45C44.3001 14.45 44.5 15.4667 44.5 16.5C44.5 17.5333 44.3001 18.5417 43.9001 19.525C43.5 20.5083 42.9167 21.3833 42.1501 22.15L25.75 38.5C25.2834 38.9667 24.7417 39.3333 24.125 39.6C23.5084 39.8667 22.8667 40 22.2 40Z" fill="white"/>
</svg>
